<svg id="Layer_1" data-name="Layer 1" xmlns="http://www.w3.org/2000/svg" viewBox="0 0 504.99 360"><defs><style>.cls-1,.cls-9{fill:none;}.cls-1,.cls-2,.cls-3,.cls-4,.cls-5,.cls-6,.cls-7,.cls-8,.cls-9{stroke:#404040;}.cls-1,.cls-2,.cls-4,.cls-5,.cls-9{stroke-linecap:round;stroke-linejoin:round;}.cls-1,.cls-2,.cls-3,.cls-4,.cls-5,.cls-6,.cls-7,.cls-8{stroke-width:4px;}.cls-2{fill:#dce1e5;}.cls-3,.cls-4{fill:#fff;}.cls-3,.cls-6,.cls-7,.cls-8{stroke-miterlimit:10;}.cls-5,.cls-8{fill:#b18be8;}.cls-6{fill:#ffbd17;}.cls-7{fill:#4ed1a1;}.cls-9{stroke-width:3.15px;}</style></defs><title>icons</title><path class="cls-1" d="M364.32,82.83a15.62,15.62,0,0,0,28.52-.08"/><path class="cls-2" d="M378.21,119.25s22.52,0.66,31-4.27c14-8.14-.25-24.82-11.26-27.62C394.57,93.68,387,98,378.21,98h0.25c-8.8,0-16.28-4.44-19.73-10.69-11,2.79-25.24,19.56-11.26,27.62,8.47,4.93,31,4.27,31,4.27"/><circle class="cls-2" cx="378.54" cy="56.95" r="18.91"/><path class="cls-3" d="M387.34,46.92c2.14,16.44,6.49,2,9.7,14A18.91,18.91,0,0,1,359.64,57a21.05,21.05,0,0,1,.25-3.21c0.9,0.08,21.62,9.12,27.46-6.82h0Z"/><path class="cls-1" d="M388.9,77.64v8.63m-20.22.08V77.89"/><path class="cls-1" d="M419.57,88.1A15.62,15.62,0,0,0,448.09,88"/><path class="cls-2" d="M433.46,124.43s22.52,0.66,31-4.27c14-8.14-.25-24.82-11.26-27.62-3.37,6.33-10.93,10.69-19.73,10.69h0.25c-8.8,0-16.28-4.44-19.73-10.69-11,2.79-25.24,19.56-11.26,27.62,8.47,4.93,31,4.27,31,4.27"/><circle class="cls-2" cx="433.79" cy="67.14" r="18.91"/><path class="cls-3" d="M421,53.24c2.14,16.44,28,5.92,31.24,17.92a18.91,18.91,0,0,1-37.4-3.95A21.05,21.05,0,0,1,415,64C416,64,421.7,67.14,421,53.24Z"/><path class="cls-1" d="M444.06 83.82L444.06 92.54"/><path class="cls-1" d="M423.84 92.54L423.84 84.07"/><path class="cls-1" d="M309.19,86a15.62,15.62,0,0,0,28.52-.08"/><path class="cls-2" d="M323.49,122.29s22.52,0.66,31-4.27c14-8.14-.25-24.82-11.26-27.62-3.37,6.33-10.93,10.69-19.73,10.69h0.25c-8.8,0-16.28-4.44-19.73-10.69C293,93.19,278.78,110,292.75,118c8.47,4.93,31,4.27,31,4.27"/><circle class="cls-2" cx="323.41" cy="64.99" r="18.91"/><path class="cls-4" d="M331.71,48c-5.51,14.14-15.95.41-26.8,21A18.91,18.91,0,0,0,342.32,65C342.32,63.92,333.19,60.14,331.71,48Zm2.06,32.88v9.54m-20.22,0V81.1"/><path class="cls-2" d="M304.51,65.4s0,8.71,3.78,11.92c-3,1.4-9.54-.74-8.63-1.4C303.36,73.38,304.51,65.4,304.51,65.4ZM342.32,65s-0.16,9.12-3.95,12.33c3,1.4,9.54-.74,8.63-1.4C343.3,73.38,342.32,65,342.32,65Z"/><path class="cls-1" d="M173.49,75.35A15.62,15.62,0,0,0,202,75.27"/><path class="cls-2" d="M187.79,111.68s22.52,0.66,31-4.27c14-8.14-.25-24.82-11.26-27.62-3.37,6.33-10.93,10.69-19.73,10.69H188c-8.8,0-16.28-4.44-19.73-10.69-11,2.79-25.24,19.56-11.26,27.62,8.47,4.93,31,4.27,31,4.27"/><circle class="cls-2" cx="187.71" cy="54.39" r="18.91"/><path class="cls-4" d="M196,37.37c-5.51,14.14-15.95.41-26.8,21a18.91,18.91,0,0,0,37.4-3.95C206.61,53.32,197.49,49.54,196,37.37Zm2.06,32.88v9.54m-20.22,0V70.5"/><path class="cls-2" d="M168.8,54.8s0,8.71,3.78,11.92c-3,1.4-9.54-.74-8.63-1.4C167.65,62.77,168.8,54.8,168.8,54.8Zm37.81-.41s-0.16,9.12-3.95,12.33c3,1.4,9.54-.74,8.63-1.4C207.6,62.77,206.61,54.39,206.61,54.39Z"/><path class="cls-1" d="M225.43,85a15.62,15.62,0,0,0,28.52-.08"/><path class="cls-2" d="M239.73,121.29s22.52,0.66,31-4.27c14-8.14-.25-24.82-11.26-27.62-3.37,6.33-10.93,10.69-19.73,10.69H240c-8.8,0-16.28-4.44-19.73-10.69C209.23,92.19,195,109,209,117c8.47,4.93,31,4.27,31,4.27"/><circle class="cls-2" cx="239.65" cy="63.99" r="18.91"/><path class="cls-4" d="M247.95,47c-5.51,14.14-15.95.41-26.8,21A18.91,18.91,0,0,0,258.55,64C258.55,62.92,249.43,59.14,247.95,47ZM250,79.86v9.54m-20.22,0V80.1"/><path class="cls-2" d="M220.74,64.4s0,8.71,3.78,11.92c-3,1.4-9.54-.74-8.63-1.4C219.59,72.38,220.74,64.4,220.74,64.4ZM258.55,64s-0.16,9.12-3.95,12.33c3,1.4,9.54-.74,8.63-1.4C259.54,72.38,258.55,64,258.55,64Z"/><path class="cls-1" d="M66.65,79.83a15.62,15.62,0,0,0,28.52-.08"/><path class="cls-2" d="M80.55,116.25s22.52,0.66,31-4.27c14-8.14-.25-24.82-11.26-27.62C96.9,90.68,89.34,95,80.55,95h0.25C72,95,64.52,90.6,61.06,84.35,50,87.15,35.83,103.92,49.8,112c8.47,4.93,31,4.27,31,4.27"/><circle class="cls-2" cx="80.87" cy="53.95" r="18.91"/><path class="cls-3" d="M89.67,43.92c2.14,16.44,6.49,2,9.7,14A18.91,18.91,0,0,1,62,54a21.05,21.05,0,0,1,.25-3.21c0.9,0.08,21.62,9.12,27.46-6.82h0Z"/><path class="cls-1" d="M91.23,74.64v8.63M71,83.35V74.89"/><path class="cls-1" d="M119.9,87.1A15.62,15.62,0,0,0,148.42,87"/><path class="cls-2" d="M133.79,123.43s22.52,0.66,31-4.27c14-8.14-.25-24.82-11.26-27.62-3.37,6.33-10.93,10.69-19.73,10.69H134c-8.8,0-16.28-4.44-19.73-10.69-11,2.79-25.24,19.56-11.26,27.62,8.47,4.93,31,4.27,31,4.27"/><circle class="cls-2" cx="134.12" cy="66.14" r="18.91"/><path class="cls-3" d="M121.29,52.24c2.14,16.44,28,5.92,31.24,17.92a18.91,18.91,0,0,1-37.4-3.95,21.05,21.05,0,0,1,.25-3.21C116.36,63,122,66.14,121.29,52.24Z"/><path class="cls-1" d="M124.17 91.54L124.17 83.07"/><path class="cls-1" d="M191.71,279.25a15.62,15.62,0,0,0,28.52-.08"/><path class="cls-5" d="M205.6,315.59s22.52,0.66,31-4.27c14-8.14-.25-24.82-11.26-27.62C222,290,214.4,294.38,205.6,294.38h0.25c-8.8,0-16.28-4.44-19.73-10.69-11,2.79-25.24,19.56-11.26,27.62,8.47,4.93,31,4.27,31,4.27"/><circle class="cls-5" cx="205.93" cy="258.29" r="18.91"/><path class="cls-3" d="M193.11,244.4c2.14,16.44,28,5.92,31.24,17.92a18.91,18.91,0,0,1-37.4-3.95,21.05,21.05,0,0,1,.25-3.21C188.18,255.17,193.85,258.29,193.11,244.4Z"/><path class="cls-1" d="M215.21 274.98L215.21 283.69"/><path class="cls-1" d="M306.9,279.25a15.62,15.62,0,0,0,28.52-.08"/><path class="cls-6" d="M320.79,315.59s22.52,0.66,31-4.27c14-8.14-.25-24.82-11.26-27.62-3.37,6.33-10.93,10.69-19.73,10.69H321c-8.8,0-16.28-4.44-19.73-10.69-11,2.79-25.24,19.56-11.26,27.62,8.47,4.93,31,4.27,31,4.27"/><circle class="cls-6" cx="321.12" cy="258.29" r="18.91"/><path class="cls-3" d="M308.3,244.4c2.14,16.44,28,5.92,31.24,17.92a18.91,18.91,0,0,1-37.4-3.95,21.05,21.05,0,0,1,.25-3.21C303.37,255.17,309,258.29,308.3,244.4Z"/><path class="cls-1" d="M331.4 274.98L331.4 283.69"/><path class="cls-1" d="M311.18 283.69L311.18 275.22"/><path class="cls-4" d="M248.56,279.25a15.62,15.62,0,0,0,28.52-.08"/><path class="cls-7" d="M262.86,315.59s22.52,0.66,31-4.27c14-8.14-.25-24.82-11.26-27.62-3.37,6.33-10.93,10.69-19.73,10.69h0.25c-8.8,0-16.28-4.44-19.73-10.69-11,2.79-25.24,19.56-11.26,27.62,8.47,4.93,31,4.27,31,4.27"/><circle class="cls-7" cx="262.78" cy="258.29" r="18.91"/><path class="cls-4" d="M271.08,241.28c-5.51,14.14-15.95.41-26.8,21a18.91,18.91,0,0,0,37.4-3.95C281.69,257.22,272.56,253.44,271.08,241.28Zm2.06,32.88v9.54m-20.22,0V274.4"/><path class="cls-8" d="M243.88,258.7s0,8.71,3.78,11.92c-3,1.4-9.54-.74-8.63-1.4C242.72,266.68,243.88,258.7,243.88,258.7Zm37.81-.41s-0.16,9.12-3.95,12.33c3,1.4,9.54-.74,8.63-1.4C282.67,266.68,281.69,258.29,281.69,258.29Z"/><path class="cls-1" d="M264.79 222.33L264.79 139"/><path class="cls-9" d="M256.3 216.34L264.97 225.02 273.65 216.34"/><path class="cls-9" d="M273.65 146L264.97 137.32 256.3 146"/><path class="cls-1" d="M329.05 219.13L360.94 142.14"/><path class="cls-9" d="M323.5 210.35L328.19 221.68 339.52 216.99"/><path class="cls-9" d="M366.45 152L361.75 140.66 350.42 145.36"/><path class="cls-1" d="M171.05 143.22L202.94 220.2"/><path class="cls-9" d="M165.5 152L170.19 140.66 181.52 145.36"/><path class="cls-9" d="M208.45 210.35L203.75 221.68 192.42 216.99"/></svg>