<svg id="Layer_1" data-name="Layer 1" xmlns="http://www.w3.org/2000/svg" viewBox="0 0 1200 643.71"><defs><style>.cls-1,.cls-2,.cls-6,.cls-8{fill:none;}.cls-1,.cls-2,.cls-3,.cls-4,.cls-5,.cls-6,.cls-9{stroke:#404040;stroke-width:4px;}.cls-1,.cls-3,.cls-4,.cls-5,.cls-6,.cls-9{stroke-miterlimit:10;}.cls-2,.cls-6,.cls-8{stroke-linecap:round;}.cls-2,.cls-8{stroke-linejoin:round;}.cls-3{fill:#b3e3ff;}.cls-4{fill:#fff;}.cls-5{fill:#4ed1a1;}.cls-7{fill:#404040;}.cls-8{stroke:#ccc;}.cls-9{fill:#b18be8;}.cls-10{fill:#999;}</style></defs><title>icons</title><path class="cls-1" d="M149.63,368.17h107.2a21,21,0,0,0,21-21v-38.9"/><path class="cls-1" d="M440,368.17H332.83a21,21,0,0,1-21-21v-38.9"/><path class="cls-2" d="M440,368.17a21,21,0,0,1,21,21v36.9"/><path id="repo1" class="cls-3" d="M231.13,261.37c0-12.4,28.2-22.4,63-22.4s63,10,63,22.4m-126,0v27.9c0,3,1.7,5.9,4.7,8.5,9.4,8.2,32,13.9,58.3,13.9s48.9-5.8,58.3-13.9c3-2.6,4.7-5.5,4.7-8.5v-27.9"/><path class="cls-4" d="M357.13,261.37c0,12.4-28.2,22.4-63,22.4s-63-10-63-22.4,28.2-22.4,63-22.4S357.13,249,357.13,261.37Z"/><path id="repo1-2" data-name="repo1" class="cls-3" d="M231.13,233.47c0-12.4,28.2-22.4,63-22.4s63,10,63,22.4m-126,0v27.9c0,3,1.7,5.9,4.7,8.5,9.4,8.2,32,13.9,58.3,13.9s48.9-5.8,58.3-13.9c3-2.6,4.7-5.5,4.7-8.5v-27.9"/><path class="cls-4" d="M357.13,233.47c0,12.4-28.2,22.4-63,22.4s-63-10-63-22.4,28.2-22.4,63-22.4S357.13,221.07,357.13,233.47Z"/><path id="repo1-3" data-name="repo1" class="cls-3" d="M231.13,205.57c0-12.4,28.2-22.4,63-22.4s63,10,63,22.4m-126,0v27.9c0,3,1.7,5.9,4.7,8.5,9.4,8.2,32,13.9,58.3,13.9s48.9-5.8,58.3-13.9c3-2.6,4.7-5.5,4.7-8.5v-27.9"/><path class="cls-4" d="M357.13,205.57c0,12.4-28.2,22.4-63,22.4s-63-10-63-22.4,28.2-22.4,63-22.4S357.13,193.17,357.13,205.57Z"/><path id="repo1-4" data-name="repo1" class="cls-3" d="M231.13,177.67c0-12.4,28.2-22.4,63-22.4s63,10,63,22.4m-126,0v27.9c0,3,1.7,5.9,4.7,8.5,9.4,8.2,32,13.9,58.3,13.9s48.9-5.8,58.3-13.9c3-2.6,4.7-5.5,4.7-8.5v-27.9"/><path class="cls-4" d="M357.13,177.67c0,12.4-28.2,22.4-63,22.4s-63-10-63-22.4,28.2-22.4,63-22.4S357.13,165.27,357.13,177.67Z"/><path class="cls-2" d="M443.63,495.37a19,19,0,0,0,34.7-.1"/><path class="cls-5" d="M460.53,539.57s27.4,0.8,37.7-5.2c17-9.9-.3-30.2-13.7-33.6-4.1,7.7-13.3,13-24,13h0.3c-10.7,0-19.8-5.4-24-13-13.4,3.4-30.7,23.8-13.7,33.6,10.3,6,37.7,5.2,37.7,5.2"/><circle class="cls-5" cx="460.93" cy="469.87" r="23"/><path class="cls-4" d="M445.33,453c2.6,20,34.1,7.2,38,21.8a23,23,0,0,1-45.5-4.8,25.61,25.61,0,0,1,.3-3.9C439.33,466.07,446.23,469.87,445.33,453Z"/><path class="cls-2" d="M473.43 490.17L473.43 500.77"/><path class="cls-2" d="M448.83 500.77L448.83 490.47"/><path class="cls-1" d="M750.93,368h107.2a21,21,0,0,0,21-21V308.1"/><path class="cls-1" d="M1041.33,368H934.13a21,21,0,0,1-21-21V308.1"/><path class="cls-2" d="M750.93,368a21,21,0,0,0-21,21v36.9"/><path class="cls-2" d="M1041.33,368a21,21,0,0,1,21,21v36.9"/><path id="repo1-5" data-name="repo1" class="cls-3" d="M832.43,261.2c0-12.4,28.2-22.4,63-22.4s63,10,63,22.4m-126,0v27.9c0,3,1.7,5.9,4.7,8.5,9.4,8.2,32,13.9,58.3,13.9s48.9-5.8,58.3-13.9c3-2.6,4.7-5.5,4.7-8.5V261.2"/><path class="cls-4" d="M958.43,261.2c0,12.4-28.2,22.4-63,22.4s-63-10-63-22.4,28.2-22.4,63-22.4S958.43,248.8,958.43,261.2Z"/><path id="repo1-6" data-name="repo1" class="cls-3" d="M832.43,233.3c0-12.4,28.2-22.4,63-22.4s63,10,63,22.4m-126,0v27.9c0,3,1.7,5.9,4.7,8.5,9.4,8.2,32,13.9,58.3,13.9s48.9-5.8,58.3-13.9c3-2.6,4.7-5.5,4.7-8.5V233.3"/><path class="cls-4" d="M958.43,233.3c0,12.4-28.2,22.4-63,22.4s-63-10-63-22.4,28.2-22.4,63-22.4S958.43,220.9,958.43,233.3Z"/><path id="repo1-7" data-name="repo1" class="cls-3" d="M832.43,205.4c0-12.4,28.2-22.4,63-22.4s63,10,63,22.4m-126,0v27.9c0,3,1.7,5.9,4.7,8.5,9.4,8.2,32,13.9,58.3,13.9s48.9-5.8,58.3-13.9c3-2.6,4.7-5.5,4.7-8.5V205.4"/><path class="cls-4" d="M958.43,205.4c0,12.4-28.2,22.4-63,22.4s-63-10-63-22.4,28.2-22.4,63-22.4S958.43,193,958.43,205.4Z"/><path id="repo1-8" data-name="repo1" class="cls-3" d="M832.43,177.5c0-12.4,28.2-22.4,63-22.4s63,10,63,22.4m-126,0v27.9c0,3,1.7,5.9,4.7,8.5,9.4,8.2,32,13.9,58.3,13.9s48.9-5.8,58.3-13.9c3-2.6,4.7-5.5,4.7-8.5V177.5"/><path class="cls-4" d="M958.43,177.5c0,12.4-28.2,22.4-63,22.4s-63-10-63-22.4,28.2-22.4,63-22.4S958.43,165.1,958.43,177.5Z"/><path class="cls-6" d="M792.43 504.3L998.43 504.3"/><path class="cls-7" d="M90.41,560.84H92l-3.11,10.91H87.31l-2.84-8.84-2.82,8.84H80.14L77,560.84h1.55l2.4,8.54,2.74-8.54h1.58l2.8,8.63Z"/><path class="cls-7" d="M100.43,568a3.79,3.79,0,1,1-3.79-3.92A3.74,3.74,0,0,1,100.43,568ZM99,568a2.33,2.33,0,1,0-2.31,2.65A2.36,2.36,0,0,0,99,568Z"/><path class="cls-7" d="M107,565.8a4.57,4.57,0,0,0-.63,0c-1.21,0-2,.65-2,2.28v3.71h-1.45v-7.4h1.41v1.29a2.32,2.32,0,0,1,2.21-1.42,2.65,2.65,0,0,1,.48,0v1.54Z"/><path class="cls-7" d="M112.58,567.47l3.21,4.28H114l-2.41-3.26-1,1v2.23H109.1V560.61h1.43v7l3.2-3.28h2Z"/><path class="cls-7" d="M118.47,560.5a1,1,0,1,1-1,1A1,1,0,0,1,118.47,560.5Zm-0.71,11.24v-7.4h1.43v7.4h-1.43Z"/><path class="cls-7" d="M123.69,571.74h-1.45v-7.4h1.41v1.06a2.54,2.54,0,0,1,2.28-1.28c1.77,0,2.64,1.28,2.64,2.92v4.69h-1.45V567.3a1.61,1.61,0,0,0-1.72-1.86,1.78,1.78,0,0,0-1.72,2v4.28Z"/><path class="cls-7" d="M132.34,571.82a2,2,0,0,0,2,1.81c1.55,0,2.26-.8,2.26-2.4v-1.06a2.47,2.47,0,0,1-2.26,1.21,3.6,3.6,0,0,1,0-7.18,2.34,2.34,0,0,1,2.28,1.17v-1h1.43v6.84a3.38,3.38,0,0,1-3.71,3.71,3.24,3.24,0,0,1-3.41-2.75Zm4.34-4a2.13,2.13,0,1,0-2.11,2.37A2.13,2.13,0,0,0,136.67,567.8Z"/><path class="cls-7" d="M144.85,566.28a5.4,5.4,0,0,1,5.41-5.68,4.63,4.63,0,0,1,4.8,3.46l-1.4.49a3.23,3.23,0,0,0-3.4-2.57c-2,0-3.88,1.45-3.88,4.29s1.89,4.31,3.88,4.31a3.47,3.47,0,0,0,3.47-2.62l1.34,0.49a4.76,4.76,0,0,1-4.81,3.51A5.36,5.36,0,0,1,144.85,566.28Z"/><path class="cls-7" d="M164.15,568a3.79,3.79,0,1,1-3.78-3.92A3.73,3.73,0,0,1,164.15,568Zm-1.48,0a2.33,2.33,0,1,0-2.31,2.65A2.36,2.36,0,0,0,162.68,568Z"/><path class="cls-7" d="M166.59,574.66V564.34H168v1.15a2.73,2.73,0,0,1,2.48-1.32c2.21,0,3.4,1.71,3.4,3.86s-1.28,3.91-3.45,3.91a2.75,2.75,0,0,1-2.4-1.2v3.92h-1.43Zm3.61-9.21A2.32,2.32,0,0,0,168,568c0,1.52.88,2.62,2.2,2.62s2.19-1.09,2.19-2.62S171.56,565.45,170.2,565.45Z"/><path class="cls-7" d="M176.25,574.83l1.85-3.91-3.18-6.58h1.66l2.31,5.11,2.21-5.11h1.55l-4.81,10.49h-1.58Z"/><path class="cls-7" d="M424.41,560.84H426l-3.11,10.91h-1.55l-2.84-8.84-2.82,8.84h-1.51L411,560.84h1.55l2.4,8.54,2.74-8.54h1.58l2.8,8.63Z"/><path class="cls-7" d="M434.43,568a3.79,3.79,0,1,1-3.79-3.92A3.74,3.74,0,0,1,434.43,568ZM433,568a2.33,2.33,0,1,0-2.31,2.65A2.36,2.36,0,0,0,433,568Z"/><path class="cls-7" d="M441,565.8a4.57,4.57,0,0,0-.63,0c-1.21,0-2,.65-2,2.28v3.71h-1.45v-7.4h1.41v1.29a2.32,2.32,0,0,1,2.21-1.42,2.65,2.65,0,0,1,.48,0v1.54Z"/><path class="cls-7" d="M446.58,567.47l3.21,4.28H448l-2.41-3.26-1,1v2.23H443.1V560.61h1.43v7l3.2-3.28h2Z"/><path class="cls-7" d="M452.47,560.5a1,1,0,1,1-1,1A1,1,0,0,1,452.47,560.5Zm-0.71,11.24v-7.4h1.43v7.4h-1.43Z"/><path class="cls-7" d="M457.69,571.74h-1.45v-7.4h1.41v1.06a2.54,2.54,0,0,1,2.28-1.28c1.77,0,2.64,1.28,2.64,2.92v4.69h-1.45V567.3a1.61,1.61,0,0,0-1.72-1.86,1.78,1.78,0,0,0-1.72,2v4.28Z"/><path class="cls-7" d="M466.34,571.82a2,2,0,0,0,2,1.81c1.55,0,2.26-.8,2.26-2.4v-1.06a2.47,2.47,0,0,1-2.26,1.21,3.6,3.6,0,0,1,0-7.18,2.34,2.34,0,0,1,2.28,1.17v-1h1.43v6.84a3.38,3.38,0,0,1-3.71,3.71,3.24,3.24,0,0,1-3.41-2.75Zm4.34-4a2.13,2.13,0,1,0-2.11,2.37A2.13,2.13,0,0,0,470.67,567.8Z"/><path class="cls-7" d="M478.85,566.28a5.4,5.4,0,0,1,5.41-5.68,4.63,4.63,0,0,1,4.8,3.46l-1.4.49a3.23,3.23,0,0,0-3.4-2.57c-2,0-3.88,1.45-3.88,4.29s1.89,4.31,3.88,4.31a3.47,3.47,0,0,0,3.47-2.62l1.34,0.49a4.76,4.76,0,0,1-4.81,3.51A5.36,5.36,0,0,1,478.85,566.28Z"/><path class="cls-7" d="M498.15,568a3.79,3.79,0,1,1-3.78-3.92A3.73,3.73,0,0,1,498.15,568Zm-1.48,0a2.33,2.33,0,1,0-2.31,2.65A2.36,2.36,0,0,0,496.68,568Z"/><path class="cls-7" d="M500.59,574.66V564.34H502v1.15a2.73,2.73,0,0,1,2.48-1.32c2.21,0,3.4,1.71,3.4,3.86s-1.28,3.91-3.45,3.91a2.75,2.75,0,0,1-2.4-1.2v3.92h-1.43Zm3.61-9.21A2.32,2.32,0,0,0,502,568c0,1.52.88,2.62,2.2,2.62s2.19-1.09,2.19-2.62S505.56,565.45,504.2,565.45Z"/><path class="cls-7" d="M510.25,574.83l1.85-3.91-3.18-6.58h1.66l2.31,5.11,2.21-5.11h1.55l-4.81,10.49h-1.58Z"/><path class="cls-7" d="M246.51,116.41a5.4,5.4,0,0,1,5.41-5.68,4.63,4.63,0,0,1,4.8,3.46l-1.4.49a3.23,3.23,0,0,0-3.4-2.57c-2,0-3.88,1.45-3.88,4.29s1.89,4.31,3.88,4.31a3.47,3.47,0,0,0,3.48-2.62l1.34,0.49a4.76,4.76,0,0,1-4.81,3.51A5.36,5.36,0,0,1,246.51,116.41Z"/><path class="cls-7" d="M265.31,119.76A3.35,3.35,0,0,1,262,122.1a3.94,3.94,0,0,1-.18-7.86c2.28,0,3.55,1.57,3.55,3.88a3.24,3.24,0,0,1,0,.46h-5.57a2.2,2.2,0,0,0,2.23,2.25,2,2,0,0,0,2.08-1.49Zm-1.46-2.35a1.86,1.86,0,0,0-2-1.89,2,2,0,0,0-2,1.89h4Z"/><path class="cls-7" d="M269.24,121.87h-1.45v-7.4h1.42v1.06a2.53,2.53,0,0,1,2.28-1.28c1.77,0,2.65,1.28,2.65,2.92v4.69h-1.45v-4.45a1.61,1.61,0,0,0-1.72-1.86,1.78,1.78,0,0,0-1.72,2v4.28Z"/><path class="cls-7" d="M279,114.47h1.6v1.31H279v3.84a0.88,0.88,0,0,0,1,1,3,3,0,0,0,.57-0.06v1.23a3.17,3.17,0,0,1-1,.14,1.92,1.92,0,0,1-2.06-2.11v-4.06H276.1v-1.31h0.4a1,1,0,0,0,1.14-1.14v-1.2H279v2.34Z"/><path class="cls-7" d="M287,115.93a4.58,4.58,0,0,0-.63,0c-1.22,0-2,.65-2,2.28v3.71h-1.45v-7.4h1.42v1.29a2.32,2.32,0,0,1,2.21-1.42,2.68,2.68,0,0,1,.48,0v1.54Z"/><path class="cls-7" d="M290.93,117.64l2-.29a0.54,0.54,0,0,0,.57-0.55,1.35,1.35,0,0,0-1.6-1.32,1.57,1.57,0,0,0-1.68,1.49l-1.38-.32a2.85,2.85,0,0,1,3-2.4c2.21,0,3.08,1.26,3.08,2.71v3.71a7,7,0,0,0,.09,1.21h-1.42a5.48,5.48,0,0,1-.08-1,2.7,2.7,0,0,1-2.38,1.23A2.24,2.24,0,1,1,290.93,117.64Zm2.57,1.06v-0.34l-2.26.34a1.11,1.11,0,0,0-1.08,1.11,1.12,1.12,0,0,0,1.2,1.08A1.94,1.94,0,0,0,293.5,118.7Z"/><path class="cls-7" d="M297.78,121.87V110.73h1.45v11.14h-1.45Z"/><path class="cls-7" d="M310,117.41h-1.63v4.46h-1.52V111H311a3.16,3.16,0,0,1,3.34,3.25,3.05,3.05,0,0,1-2.64,3.09l2.6,4.57H312.5Zm0.68-1.35a1.88,1.88,0,1,0,0-3.74h-2.31v3.74h2.31Z"/><path class="cls-7" d="M323,119.76a3.35,3.35,0,0,1-3.32,2.34,3.94,3.94,0,0,1-.18-7.86c2.28,0,3.55,1.57,3.55,3.88a3.21,3.21,0,0,1,0,.46H317.4a2.2,2.2,0,0,0,2.23,2.25,2,2,0,0,0,2.08-1.49Zm-1.46-2.35a1.86,1.86,0,0,0-2-1.89,2,2,0,0,0-2,1.89h4Z"/><path class="cls-7" d="M325.43,124.79V114.47h1.4v1.15a2.73,2.73,0,0,1,2.48-1.32c2.21,0,3.4,1.71,3.4,3.86s-1.28,3.91-3.45,3.91a2.75,2.75,0,0,1-2.4-1.2v3.92h-1.43Zm3.61-9.21a2.32,2.32,0,0,0-2.2,2.58c0,1.52.88,2.62,2.2,2.62s2.18-1.09,2.18-2.62S330.4,115.58,329,115.58Z"/><path class="cls-7" d="M342.09,118.16a3.79,3.79,0,1,1-3.78-3.92A3.73,3.73,0,0,1,342.09,118.16Zm-1.48,0a2.33,2.33,0,1,0-2.31,2.65A2.36,2.36,0,0,0,340.62,118.16Z"/><path class="cls-8" d="M602.23,67.52v541.4"/><path id="repo1-9" data-name="repo1" class="cls-9" d="M670.93,518.77c0-12.4,28.2-22.4,63-22.4s63,10,63,22.4m-126,0v27.9c0,3,1.7,5.9,4.7,8.5,9.4,8.2,32,13.9,58.3,13.9s48.9-5.8,58.3-13.9c3-2.6,4.7-5.5,4.7-8.5v-27.9"/><path class="cls-4" d="M796.93,518.77c0,12.4-28.2,22.4-63,22.4s-63-10-63-22.4,28.2-22.4,63-22.4S796.93,506.37,796.93,518.77Z"/><path id="repo1-10" data-name="repo1" class="cls-9" d="M670.93,490.87c0-12.4,28.2-22.4,63-22.4s63,10,63,22.4m-126,0v27.9c0,3,1.7,5.9,4.7,8.5,9.4,8.2,32,13.9,58.3,13.9s48.9-5.8,58.3-13.9c3-2.6,4.7-5.5,4.7-8.5v-27.9"/><path class="cls-4" d="M796.93,490.87c0,12.4-28.2,22.4-63,22.4s-63-10-63-22.4,28.2-22.4,63-22.4S796.93,478.47,796.93,490.87Z"/><path id="repo1-11" data-name="repo1" class="cls-9" d="M670.93,463c0-12.4,28.2-22.4,63-22.4s63,10,63,22.4m-126,0v27.9c0,3,1.7,5.9,4.7,8.5,9.4,8.2,32,13.9,58.3,13.9s48.9-5.8,58.3-13.9c3-2.6,4.7-5.5,4.7-8.5V463"/><path class="cls-4" d="M796.93,463c0,12.4-28.2,22.4-63,22.4s-63-10-63-22.4,28.2-22.4,63-22.4S796.93,450.57,796.93,463Z"/><path id="repo1-12" data-name="repo1" class="cls-9" d="M670.93,435.07c0-12.4,28.2-22.4,63-22.4s63,10,63,22.4m-126,0V463c0,3,1.7,5.9,4.7,8.5,9.4,8.2,32,13.9,58.3,13.9s48.9-5.8,58.3-13.9c3-2.6,4.7-5.5,4.7-8.5v-27.9"/><path class="cls-4" d="M796.93,435.07c0,12.4-28.2,22.4-63,22.4s-63-10-63-22.4,28.2-22.4,63-22.4S796.93,422.67,796.93,435.07Z"/><path id="repo1-13" data-name="repo1" class="cls-5" d="M999.42,518.77c0-12.4,28.2-22.4,63-22.4s63,10,63,22.4m-126,0v27.9c0,3,1.7,5.9,4.7,8.5,9.4,8.2,32,13.9,58.3,13.9s48.9-5.8,58.3-13.9c3-2.6,4.7-5.5,4.7-8.5v-27.9"/><path class="cls-4" d="M1125.42,518.77c0,12.4-28.2,22.4-63,22.4s-63-10-63-22.4,28.2-22.4,63-22.4S1125.42,506.37,1125.42,518.77Z"/><path id="repo1-14" data-name="repo1" class="cls-5" d="M999.42,490.87c0-12.4,28.2-22.4,63-22.4s63,10,63,22.4m-126,0v27.9c0,3,1.7,5.9,4.7,8.5,9.4,8.2,32,13.9,58.3,13.9s48.9-5.8,58.3-13.9c3-2.6,4.7-5.5,4.7-8.5v-27.9"/><path class="cls-4" d="M1125.42,490.87c0,12.4-28.2,22.4-63,22.4s-63-10-63-22.4,28.2-22.4,63-22.4S1125.42,478.47,1125.42,490.87Z"/><path id="repo1-15" data-name="repo1" class="cls-5" d="M999.42,463c0-12.4,28.2-22.4,63-22.4s63,10,63,22.4m-126,0v27.9c0,3,1.7,5.9,4.7,8.5,9.4,8.2,32,13.9,58.3,13.9s48.9-5.8,58.3-13.9c3-2.6,4.7-5.5,4.7-8.5V463"/><path class="cls-4" d="M1125.42,463c0,12.4-28.2,22.4-63,22.4s-63-10-63-22.4,28.2-22.4,63-22.4S1125.42,450.57,1125.42,463Z"/><path id="repo1-16" data-name="repo1" class="cls-5" d="M999.42,435.07c0-12.4,28.2-22.4,63-22.4s63,10,63,22.4m-126,0V463c0,3,1.7,5.9,4.7,8.5,9.4,8.2,32,13.9,58.3,13.9s48.9-5.8,58.3-13.9c3-2.6,4.7-5.5,4.7-8.5v-27.9"/><path class="cls-4" d="M1125.42,435.07c0,12.4-28.2,22.4-63,22.4s-63-10-63-22.4,28.2-22.4,63-22.4S1125.42,422.67,1125.42,435.07Z"/><path class="cls-7" d="M865.64,121.87V111h6.63v1.4h-5.12v3.51h4.65v1.41h-4.65v4.58h-1.51Z"/><path class="cls-7" d="M876.54,122.1a2.74,2.74,0,0,1-2.77-3v-4.66h1.45v4.45a1.65,1.65,0,0,0,1.68,1.91,1.67,1.67,0,0,0,1.75-1.89v-4.46h1.45v6a12.56,12.56,0,0,0,.08,1.37h-1.38a6.46,6.46,0,0,1-.06-0.89A2.41,2.41,0,0,1,876.54,122.1Z"/><path class="cls-7" d="M883.15,121.87V110.73h1.45v11.14h-1.45Z"/><path class="cls-7" d="M887.64,121.87V110.73h1.45v11.14h-1.45Z"/><path class="cls-7" d="M899.87,117.41h-1.63v4.46h-1.52V111h4.11a3.16,3.16,0,0,1,3.34,3.25,3.05,3.05,0,0,1-2.65,3.09l2.6,4.57h-1.75Zm0.68-1.35a1.88,1.88,0,1,0,0-3.74h-2.31v3.74h2.31Z"/><path class="cls-7" d="M912.81,119.76a3.35,3.35,0,0,1-3.32,2.34,3.94,3.94,0,0,1-.18-7.86c2.28,0,3.55,1.57,3.55,3.88a3.24,3.24,0,0,1,0,.46h-5.57a2.2,2.2,0,0,0,2.23,2.25,2,2,0,0,0,2.08-1.49Zm-1.46-2.35a1.86,1.86,0,0,0-2-1.89,2,2,0,0,0-2,1.89h4Z"/><path class="cls-7" d="M915.29,124.79V114.47h1.4v1.15a2.73,2.73,0,0,1,2.48-1.32c2.21,0,3.4,1.71,3.4,3.86s-1.28,3.91-3.45,3.91a2.75,2.75,0,0,1-2.4-1.2v3.92h-1.43Zm3.61-9.21a2.32,2.32,0,0,0-2.2,2.58c0,1.52.88,2.62,2.2,2.62s2.18-1.09,2.18-2.62S920.26,115.58,918.91,115.58Z"/><path class="cls-7" d="M932,118.16a3.79,3.79,0,1,1-3.78-3.92A3.73,3.73,0,0,1,932,118.16Zm-1.48,0a2.33,2.33,0,1,0-2.31,2.65A2.36,2.36,0,0,0,930.48,118.16Z"/><path class="cls-7" d="M696.13,608.92V598h6.63v1.4h-5.12v3.51h4.65v1.41h-4.65v4.58h-1.51Z"/><path class="cls-7" d="M707,609.15a2.74,2.74,0,0,1-2.77-3v-4.66h1.45V606a1.65,1.65,0,0,0,1.68,1.91,1.67,1.67,0,0,0,1.75-1.89v-4.46h1.45v6a12.56,12.56,0,0,0,.08,1.37h-1.38a6.46,6.46,0,0,1-.06-0.89A2.41,2.41,0,0,1,707,609.15Z"/><path class="cls-7" d="M713.64,608.92V597.78h1.45v11.14h-1.45Z"/><path class="cls-7" d="M718.13,608.92V597.78h1.45v11.14h-1.45Z"/><path class="cls-7" d="M730.36,604.46h-1.63v4.46h-1.52V598h4.11a3.16,3.16,0,0,1,3.34,3.25,3.05,3.05,0,0,1-2.65,3.09l2.6,4.57h-1.75ZM731,603.1a1.88,1.88,0,1,0,0-3.74h-2.31v3.74H731Z"/><path class="cls-7" d="M743.3,606.81a3.35,3.35,0,0,1-3.32,2.34,3.94,3.94,0,0,1-.18-7.86c2.28,0,3.55,1.57,3.55,3.88a3.24,3.24,0,0,1,0,.46h-5.57a2.2,2.2,0,0,0,2.23,2.25,2,2,0,0,0,2.08-1.49Zm-1.46-2.35a1.86,1.86,0,0,0-2-1.89,2,2,0,0,0-2,1.89h4Z"/><path class="cls-7" d="M745.78,611.84V601.52h1.4v1.15a2.73,2.73,0,0,1,2.48-1.32c2.21,0,3.4,1.71,3.4,3.86s-1.28,3.91-3.45,3.91a2.75,2.75,0,0,1-2.4-1.2v3.92h-1.43Zm3.61-9.21a2.32,2.32,0,0,0-2.2,2.58c0,1.52.88,2.62,2.2,2.62s2.18-1.09,2.18-2.62S750.75,602.63,749.39,602.63Z"/><path class="cls-7" d="M762.44,605.21a3.79,3.79,0,1,1-3.78-3.92A3.73,3.73,0,0,1,762.44,605.21Zm-1.48,0a2.33,2.33,0,1,0-2.31,2.65A2.36,2.36,0,0,0,761,605.21Z"/><path class="cls-7" d="M1035.11,608.92V598h6.63v1.4h-5.12v3.51h4.65v1.41h-4.65v4.58h-1.51Z"/><path class="cls-7" d="M1046,609.15a2.74,2.74,0,0,1-2.77-3v-4.66h1.45V606a1.65,1.65,0,0,0,1.68,1.91,1.67,1.67,0,0,0,1.75-1.89v-4.46h1.45v6a12.56,12.56,0,0,0,.08,1.37h-1.38a6.46,6.46,0,0,1-.06-0.89A2.41,2.41,0,0,1,1046,609.15Z"/><path class="cls-7" d="M1052.62,608.92V597.78h1.45v11.14h-1.45Z"/><path class="cls-7" d="M1057.11,608.92V597.78h1.45v11.14h-1.45Z"/><path class="cls-7" d="M1069.34,604.46h-1.63v4.46h-1.52V598h4.11a3.16,3.16,0,0,1,3.34,3.25,3.05,3.05,0,0,1-2.65,3.09l2.6,4.57h-1.75Zm0.68-1.35a1.88,1.88,0,1,0,0-3.74h-2.31v3.74H1070Z"/><path class="cls-7" d="M1082.28,606.81a3.35,3.35,0,0,1-3.32,2.34,3.94,3.94,0,0,1-.18-7.86c2.28,0,3.55,1.57,3.55,3.88a3.24,3.24,0,0,1,0,.46h-5.57a2.2,2.2,0,0,0,2.23,2.25,2,2,0,0,0,2.08-1.49Zm-1.46-2.35a1.86,1.86,0,0,0-2-1.89,2,2,0,0,0-2,1.89h4Z"/><path class="cls-7" d="M1084.76,611.84V601.52h1.4v1.15a2.73,2.73,0,0,1,2.48-1.32c2.21,0,3.4,1.71,3.4,3.86s-1.28,3.91-3.45,3.91a2.75,2.75,0,0,1-2.4-1.2v3.92h-1.43Zm3.61-9.21a2.32,2.32,0,0,0-2.2,2.58c0,1.52.88,2.62,2.2,2.62s2.18-1.09,2.18-2.62S1089.73,602.63,1088.38,602.63Z"/><path class="cls-7" d="M1101.43,605.21a3.79,3.79,0,1,1-3.78-3.92A3.73,3.73,0,0,1,1101.43,605.21Zm-1.48,0a2.33,2.33,0,1,0-2.31,2.65A2.36,2.36,0,0,0,1099.95,605.21Z"/><path class="cls-2" d="M148.7,368.17a21,21,0,0,0-21,21v36.9"/><path class="cls-2" d="M114,493.35a19,19,0,0,0,34.7-.1"/><path class="cls-9" d="M130.9,537.65s27.4,0.8,37.7-5.2c17-9.9-.3-30.2-13.7-33.6-4.1,7.7-13.3,13-24,13h0.3c-10.7,0-19.8-5.4-24-13-13.4,3.4-30.7,23.8-13.7,33.6,10.3,6,37.7,5.2,37.7,5.2"/><circle class="cls-9" cx="131.3" cy="467.95" r="23"/><path class="cls-4" d="M142,455.75c2.6,20,7.9,2.4,11.8,17a23,23,0,0,1-45.5-4.8,25.61,25.61,0,0,1,.3-3.9c1.1,0.1,26.3,11.1,33.4-8.3h0Z"/><path class="cls-2" d="M143.9,488.25v10.5m-24.6.1v-10.3"/><path class="cls-10" d="M250.48,62.07A5.46,5.46,0,0,1,256,56.38a4.75,4.75,0,0,1,4.91,3.54l-1.74.58A3,3,0,0,0,256,58.12a3.62,3.62,0,0,0-3.6,4A3.61,3.61,0,0,0,256,66a3.25,3.25,0,0,0,3.25-2.4l1.69,0.55A4.89,4.89,0,0,1,256,67.75,5.4,5.4,0,0,1,250.48,62.07Z"/><path class="cls-10" d="M269.59,65.38a3.37,3.37,0,0,1-3.38,2.37,4,4,0,0,1-.19-8c2.31,0,3.66,1.52,3.66,3.89a2.63,2.63,0,0,1,0,.57h-5.48a2,2,0,0,0,2,2,1.81,1.81,0,0,0,1.88-1.31Zm-1.71-2.43A1.68,1.68,0,0,0,266,61.29a1.8,1.8,0,0,0-1.83,1.66h3.68Z"/><path class="cls-10" d="M273.76,67.52H272V60h1.74v1a2.49,2.49,0,0,1,2.21-1.22c1.83,0,2.71,1.32,2.71,3v4.74h-1.78V63.09a1.45,1.45,0,0,0-1.54-1.66,1.57,1.57,0,0,0-1.55,1.77v4.32Z"/><path class="cls-10" d="M283.65,60h1.55v1.58h-1.55v3.48a0.81,0.81,0,0,0,1,.94,3.78,3.78,0,0,0,.62-0.06v1.48a2.81,2.81,0,0,1-1.09.17,2.06,2.06,0,0,1-2.25-2.23V61.61H280.5V60h0.38A1.06,1.06,0,0,0,282,58.86V57.74h1.61V60Z"/><path class="cls-10" d="M291.87,61.8a4,4,0,0,0-.58,0c-1.38,0-2,.8-2,2.2v3.57h-1.78V60h1.74v1.2a2.27,2.27,0,0,1,2.17-1.29,2.63,2.63,0,0,1,.48,0V61.8Z"/><path class="cls-10" d="M295.76,63.23l1.92-.29a0.52,0.52,0,0,0,.55-0.54,1.18,1.18,0,0,0-1.42-1.14,1.44,1.44,0,0,0-1.54,1.35l-1.63-.37a2.93,2.93,0,0,1,3.15-2.45c2.31,0,3.18,1.31,3.18,2.8v3.72a6.75,6.75,0,0,0,.09,1.2h-1.66a4.13,4.13,0,0,1-.08-1A2.61,2.61,0,0,1,296,67.75a2.35,2.35,0,0,1-2.54-2.26A2.3,2.3,0,0,1,295.76,63.23Zm2.48,1.18V64.07l-2,.29a1,1,0,0,0-1,1,1,1,0,0,0,1.09,1A1.7,1.7,0,0,0,298.24,64.41Z"/><path class="cls-10" d="M302.73,67.52V56.38h1.78V67.52h-1.78Z"/><path class="cls-10" d="M308.29,56.23a1.17,1.17,0,0,1,1.17,1.17A1.16,1.16,0,1,1,308.29,56.23Zm-0.88,11.29V60h1.77v7.49h-1.77Z"/><path class="cls-10" d="M311.51,67.52V66l3.8-4.37h-3.72V60h6v1.51l-3.84,4.42h3.92v1.57h-6.12Z"/><path class="cls-10" d="M326.55,65.38a3.37,3.37,0,0,1-3.38,2.37,4,4,0,0,1-.19-8c2.31,0,3.66,1.52,3.66,3.89a2.63,2.63,0,0,1,0,.57h-5.48a2,2,0,0,0,2,2A1.81,1.81,0,0,0,325,64.9Zm-1.71-2.43A1.68,1.68,0,0,0,323,61.29a1.8,1.8,0,0,0-1.83,1.66h3.68Z"/><path class="cls-10" d="M335.86,66.15a12.56,12.56,0,0,0,.08,1.37h-1.71a7.59,7.59,0,0,1-.08-1A2.47,2.47,0,0,1,332,67.7a3.64,3.64,0,0,1-3.6-4,3.68,3.68,0,0,1,3.57-3.92,2.28,2.28,0,0,1,2.2,1.08V56.38h1.74v9.77Zm-3.71,0a2.11,2.11,0,0,0,2-2.4,2,2,0,0,0-2-2.32A2.39,2.39,0,0,0,332.15,66.13Z"/><path class="cls-10" d="M857.56,67.52V56.61h3.86a5.09,5.09,0,0,1,5.31,5.48,5.08,5.08,0,0,1-5.32,5.43h-3.84Zm3.78-1.69c1.89,0,3.46-1.22,3.46-3.74s-1.55-3.78-3.45-3.78h-2v7.52h1.94Z"/><path class="cls-10" d="M870,56.23a1.17,1.17,0,0,1,1.17,1.17A1.16,1.16,0,1,1,870,56.23ZM869.1,67.52V60h1.77v7.49H869.1Z"/><path class="cls-10" d="M874.65,65.06a1.4,1.4,0,0,0,1.52,1.28,1,1,0,0,0,1.12-.86,0.89,0.89,0,0,0-.88-0.83l-1.11-.25a2.26,2.26,0,0,1-2-2.18,2.6,2.6,0,0,1,2.75-2.41,2.64,2.64,0,0,1,2.89,2.09l-1.51.43a1.29,1.29,0,0,0-1.38-1.12,1,1,0,0,0-1.08.86,0.82,0.82,0,0,0,.75.78l1.14,0.23A2.36,2.36,0,0,1,879,65.35a2.55,2.55,0,0,1-2.83,2.4,2.82,2.82,0,0,1-3.09-2.26Z"/><path class="cls-10" d="M883.64,60h1.55v1.58h-1.55v3.48a0.81,0.81,0,0,0,1,.94,3.78,3.78,0,0,0,.62-0.06v1.48a2.81,2.81,0,0,1-1.09.17,2.06,2.06,0,0,1-2.25-2.23V61.61h-1.38V60h0.38A1.06,1.06,0,0,0,882,58.86V57.74h1.62V60Z"/><path class="cls-10" d="M891.86,61.8a4,4,0,0,0-.58,0c-1.38,0-2,.8-2,2.2v3.57h-1.78V60h1.74v1.2a2.27,2.27,0,0,1,2.17-1.29,2.63,2.63,0,0,1,.48,0V61.8Z"/><path class="cls-10" d="M894.81,56.23A1.17,1.17,0,0,1,896,57.4,1.16,1.16,0,1,1,894.81,56.23Zm-0.88,11.29V60h1.77v7.49h-1.77Z"/><path class="cls-10" d="M898.6,67.52V56.38h1.75V61a2.7,2.7,0,0,1,2.35-1.12c2.25,0,3.46,1.71,3.46,3.91s-1.34,4-3.52,4a2.57,2.57,0,0,1-2.31-1.18v1H898.6Zm3.75-6.11a2.06,2.06,0,0,0-2,2.34,2,2,0,1,0,4,0A2,2,0,0,0,902.35,61.41Z"/><path class="cls-10" d="M911.18,67.73a2.77,2.77,0,0,1-2.83-3V60h1.79v4.4a1.48,1.48,0,0,0,1.51,1.71,1.5,1.5,0,0,0,1.57-1.68V60H915v6.12a12.31,12.31,0,0,0,.08,1.37h-1.71a5.64,5.64,0,0,1-.06-0.83A2.4,2.4,0,0,1,911.18,67.73Z"/><path class="cls-10" d="M920.16,60h1.55v1.58h-1.55v3.48a0.81,0.81,0,0,0,1,.94,3.78,3.78,0,0,0,.62-0.06v1.48a2.81,2.81,0,0,1-1.09.17,2.06,2.06,0,0,1-2.25-2.23V61.61H917V60h0.38a1.06,1.06,0,0,0,1.15-1.17V57.74h1.62V60Z"/><path class="cls-10" d="M930.68,65.38a3.37,3.37,0,0,1-3.38,2.37,4,4,0,0,1-.19-8c2.31,0,3.66,1.52,3.66,3.89a2.63,2.63,0,0,1,0,.57h-5.48a2,2,0,0,0,2,2,1.81,1.81,0,0,0,1.88-1.31ZM929,62.95a1.68,1.68,0,0,0-1.85-1.66,1.8,1.8,0,0,0-1.83,1.66H929Z"/><path class="cls-10" d="M940,66.15a12.56,12.56,0,0,0,.08,1.37h-1.71a7.59,7.59,0,0,1-.08-1,2.47,2.47,0,0,1-2.2,1.15,3.64,3.64,0,0,1-3.6-4,3.68,3.68,0,0,1,3.57-3.92,2.28,2.28,0,0,1,2.2,1.08V56.38H940v9.77Zm-3.71,0a2.11,2.11,0,0,0,2-2.4,2,2,0,0,0-2-2.32A2.39,2.39,0,0,0,936.28,66.13Z"/></svg>