<?xml version="1.0" encoding="utf-8"?>
<!-- Generator: Adobe Illustrator 25.2.3, SVG Export Plug-In . SVG Version: 6.00 Build 0)  -->
<svg version="1.1" id="Layer_1" xmlns="http://www.w3.org/2000/svg" xmlns:xlink="http://www.w3.org/1999/xlink" x="0px" y="0px"
	 viewBox="0 0 523.9 429" style="enable-background:new 0 0 523.9 429;" xml:space="preserve">
<style type="text/css">
	.st0{fill:#FFFFFF;stroke:#CCCCCC;stroke-width:4;stroke-linecap:round;stroke-linejoin:round;}
	.st1{fill:#B18BE8;stroke:#404040;stroke-width:4;stroke-linecap:round;stroke-linejoin:round;}
	.st2{fill:none;stroke:#404040;stroke-width:4;stroke-linecap:round;stroke-linejoin:round;}
	.st3{fill:#404040;}
	.st4{fill:none;stroke:#404040;stroke-width:4;stroke-miterlimit:10;}
	.st5{fill:#B18BE8;stroke:#404040;stroke-width:4;stroke-miterlimit:10;}
	.st6{fill:#B3E3FF;stroke:#404040;stroke-width:4;stroke-linecap:round;stroke-linejoin:round;stroke-miterlimit:10;}
	.st7{fill:#414141;}
</style>
<path class="st0" d="M128.7,257.2h252"/>
<circle class="st0" cx="285.1" cy="257.2" r="21"/>
<circle class="st0" cx="382.1" cy="257.2" r="21"/>
<path class="st1" d="M330.2,34H434v50H330.2V34z"/>
<path class="st2" d="M382.1,129.7v-23.5"/>
<path class="st2" d="M392.9,121l-10.8,10.8L371.2,121"/>
<path class="st2" d="M382.1,325.1v-23.5"/>
<path class="st2" d="M371.2,310.3l10.9-10.8l10.9,10.8"/>
<path class="st3" d="M355.9,65.3V54.4h6.6v1.4h-5.1v3.5h4.6v1.4h-4.6v4.6L355.9,65.3L355.9,65.3z"/>
<path class="st3" d="M370.7,63.2c-0.5,1.4-1.8,2.4-3.3,2.3c-2.2-0.1-3.9-1.9-3.8-4.1c0.1-2,1.6-3.6,3.6-3.7c2.3,0,3.5,1.6,3.5,3.9
	c0,0.2,0,0.3,0,0.5h-5.6c0,1.2,0.9,2.2,2.1,2.2c0,0,0.1,0,0.1,0c1,0.1,1.8-0.6,2.1-1.5L370.7,63.2z M369.3,60.9c0-1-0.8-1.9-1.8-1.9
	c-0.1,0-0.1,0-0.2,0c-1.1,0-1.9,0.8-2,1.9H369.3z"/>
<path class="st3" d="M375,61.1l2-0.3c0.3,0,0.6-0.2,0.6-0.5c0,0,0,0,0,0c0-0.7-0.6-1.3-1.4-1.3c-0.1,0-0.2,0-0.2,0
	c-0.9-0.1-1.6,0.6-1.7,1.5c0,0,0,0,0,0l-1.4-0.3c0.2-1.5,1.5-2.5,3-2.4c2.2,0,3.1,1.3,3.1,2.7v3.7c0,0.4,0,0.8,0.1,1.2h-1.4
	c-0.1-0.3-0.1-0.7-0.1-1c-0.5,0.8-1.4,1.3-2.4,1.2c-1.2,0.2-2.4-0.7-2.6-1.9s0.7-2.4,1.9-2.6C374.7,61.1,374.8,61.1,375,61.1z
	 M377.6,62.2v-0.3l-2.3,0.3c-0.6,0-1.1,0.5-1.1,1.1c0,0.6,0.5,1.1,1.2,1.1c0,0,0,0,0,0c1.1,0.1,2-0.7,2.1-1.7
	C377.6,62.5,377.6,62.3,377.6,62.2L377.6,62.2z"/>
<path class="st3" d="M383.8,57.9h1.6v1.3h-1.6v3.8c-0.1,0.5,0.3,0.9,0.7,1c0.1,0,0.2,0,0.3,0c0.2,0,0.4,0,0.6-0.1v1.2
	c-0.3,0.1-0.7,0.1-1,0.1c-1.1,0.1-2-0.7-2.1-1.8c0-0.1,0-0.2,0-0.3v-4.1h-1.4v-1.3h0.4c0.5,0.1,1.1-0.3,1.1-0.8c0-0.1,0-0.2,0-0.3
	v-1.2h1.3L383.8,57.9L383.8,57.9z"/>
<path class="st3" d="M390.6,65.6c-1.5,0-2.8-1.2-2.8-2.7c0-0.1,0-0.2,0-0.3v-4.6h1.5v4.5c-0.1,0.9,0.5,1.7,1.4,1.9
	c0.1,0,0.2,0,0.3,0c0.9,0.1,1.7-0.7,1.8-1.6c0-0.1,0-0.2,0-0.3v-4.5h1.5v6c0,0.5,0,0.9,0.1,1.4h-1.4c0-0.3-0.1-0.6-0.1-0.9
	C392.3,65.2,391.5,65.6,390.6,65.6z"/>
<path class="st3" d="M401.3,59.4c-0.2,0-0.4,0-0.6,0c-1.2,0-2,0.7-2,2.3v3.7h-1.5V58h1.4v1.3c0.4-0.9,1.3-1.4,2.2-1.4
	c0.2,0,0.3,0,0.5,0L401.3,59.4L401.3,59.4z"/>
<path class="st3" d="M409.8,63.2c-0.5,1.4-1.8,2.4-3.3,2.3c-2.2-0.1-3.9-1.9-3.8-4.1c0.1-2,1.6-3.6,3.6-3.7c2.3,0,3.5,1.6,3.5,3.9
	c0,0.2,0,0.3,0,0.5h-5.6c0,1.2,0.9,2.2,2.1,2.2c0,0,0.1,0,0.1,0c1,0.1,1.8-0.6,2.1-1.5L409.8,63.2z M408.3,60.9c0-1-0.8-1.9-1.8-1.9
	c-0.1,0-0.1,0-0.2,0c-1.1,0-1.9,0.8-2,1.9H408.3z"/>
<path class="st4" d="M201.7,216.2c0,22.6-18.4,41-41,41h-32 M201.7,216.2c0-22.6,18.4-41,41-41h22.4"/>
<circle class="st5" cx="286.1" cy="175.2" r="21"/>
<circle class="st5" cx="382.1" cy="175.2" r="21"/>
<path class="st4" d="M307.1,175.2h54"/>
<circle class="st0" cx="107.7" cy="257.2" r="21"/>
<g>
	<path class="st6" d="M332.8,345.9H429v50h-96.2V345.9z"/>
	<g>
		<path class="st7" d="M365.7,377v-10h2l2.4,7.1c0.2,0.7,0.4,1.2,0.5,1.5c0.1-0.4,0.3-0.9,0.5-1.6l2.4-7h1.8v10H374v-8.4l-2.9,8.4
			h-1.2l-2.9-8.5v8.5H365.7z"/>
		<path class="st7" d="M382.7,376.1c-0.5,0.4-0.9,0.7-1.3,0.8c-0.4,0.2-0.9,0.2-1.4,0.2c-0.8,0-1.4-0.2-1.8-0.6
			c-0.4-0.4-0.6-0.9-0.6-1.5c0-0.4,0.1-0.7,0.2-1c0.2-0.3,0.4-0.5,0.6-0.7c0.3-0.2,0.6-0.3,0.9-0.4c0.2-0.1,0.6-0.1,1.1-0.2
			c1-0.1,1.7-0.3,2.2-0.4c0-0.2,0-0.3,0-0.3c0-0.5-0.1-0.9-0.3-1.1c-0.3-0.3-0.8-0.4-1.4-0.4c-0.6,0-1,0.1-1.3,0.3
			c-0.3,0.2-0.5,0.6-0.6,1.1l-1.2-0.2c0.1-0.5,0.3-0.9,0.5-1.2c0.3-0.3,0.6-0.6,1.1-0.7c0.5-0.2,1-0.3,1.6-0.3s1.1,0.1,1.5,0.2
			s0.7,0.3,0.9,0.6c0.2,0.2,0.3,0.5,0.4,0.8c0,0.2,0.1,0.6,0.1,1.1v1.6c0,1.1,0,1.9,0.1,2.2s0.2,0.6,0.3,0.9H383
			C382.8,376.8,382.7,376.5,382.7,376.1z M382.6,373.4c-0.4,0.2-1.1,0.3-2,0.5c-0.5,0.1-0.9,0.2-1.1,0.2c-0.2,0-0.4,0.2-0.5,0.4
			c-0.1,0.2-0.2,0.4-0.2,0.6c0,0.3,0.1,0.6,0.4,0.8c0.2,0.2,0.6,0.3,1.1,0.3s0.9-0.1,1.3-0.3c0.4-0.2,0.6-0.5,0.8-0.9
			c0.1-0.3,0.2-0.7,0.2-1.2V373.4L382.6,373.4z"/>
		<path class="st7" d="M386.4,368.4V367h1.2v1.4H386.4z M386.4,377v-7.3h1.2v7.3H386.4z"/>
		<path class="st7" d="M390.2,377v-7.3h1.1v1c0.5-0.8,1.3-1.2,2.3-1.2c0.4,0,0.8,0.1,1.2,0.2c0.4,0.2,0.6,0.4,0.8,0.6
			s0.3,0.6,0.4,0.9c0,0.2,0.1,0.6,0.1,1.2v4.5h-1.2v-4.4c0-0.5,0-0.9-0.1-1.1s-0.3-0.4-0.5-0.6c-0.2-0.1-0.5-0.2-0.9-0.2
			c-0.5,0-1,0.2-1.4,0.5s-0.6,1-0.6,1.9v4H390.2L390.2,377z"/>
	</g>
</g>
</svg>
